<svg width="48" height="48" viewBox="0 0 48 48" fill="none" xmlns="http://www.w3.org/2000/svg">
<path d="M37.5361 0C43.3151 7.16399e-05 47.9999 4.68486 48 10.4639V37.5361C47.9999 43.3151 43.3151 47.9999 37.5361 48H10.4639C4.68486 47.9999 7.20286e-05 43.3151 0 37.5361V10.4639C7.16421e-05 4.68486 4.68486 7.20265e-05 10.4639 0H37.5361ZM17.4316 6.35156C15.0176 4.9578 12 6.69979 12 9.4873V38.5127C12 41.3002 15.0176 43.0422 17.4316 41.6484L42.5684 27.1357C44.9823 25.742 44.9823 22.258 42.5684 20.8643L17.4316 6.35156Z" fill="black"/>
<g clip-path="url(#clip0_3052_7397)">
<path d="M24 19.2C27.3137 19.2 30 21.8862 30 25.2C30 28.5137 27.3137 31.2 24 31.2C20.6863 31.2 18 28.5137 18 25.2C18 21.8862 20.6863 19.2 24 19.2ZM25.7812 22.2166C25.6903 22.2206 25.6089 22.2289 25.5322 22.2371C25.4555 22.2452 25.3786 22.2533 25.3066 22.2615C25.23 22.2696 25.1485 22.2776 25.0527 22.2898C24.976 22.302 24.9182 22.3307 24.8799 22.3796C24.8368 22.4285 24.8125 22.4855 24.8076 22.5466C24.798 22.7303 24.784 22.9678 24.7744 23.2576C24.7648 23.5471 24.7548 23.8571 24.75 24.1833C24.7452 24.3793 24.7363 24.5716 24.7363 24.7634C24.7315 24.9552 24.7364 25.1389 24.7412 25.3103C24.746 25.4898 24.746 25.6653 24.7412 25.8367C24.7364 25.9141 24.7264 25.9793 24.7168 26.0242C24.7024 26.0691 24.7071 26.0935 24.6592 26.0935C24.6113 26.0934 24.5584 26.049 24.501 25.9675C24.4434 25.8859 24.3856 25.7798 24.3232 25.6492C24.2609 25.5226 24.204 25.3795 24.1465 25.2244C24.0889 25.0693 24.0362 24.918 23.9883 24.7751C23.9404 24.6324 23.9018 24.5015 23.873 24.3914C23.8396 24.2773 23.82 24.2036 23.8057 24.1628C23.796 24.122 23.7766 24.0489 23.7432 23.9392C23.7096 23.829 23.672 23.702 23.624 23.5632C23.5761 23.4245 23.5232 23.2816 23.4609 23.1306C23.4034 22.9837 23.3307 22.8452 23.2588 22.7146C23.187 22.5842 23.1108 22.4778 23.0342 22.3962C22.9527 22.3105 22.8755 22.2656 22.7939 22.2615C22.6982 22.2574 22.6169 22.2488 22.5498 22.2488C22.4827 22.2447 22.4148 22.2449 22.3477 22.2449C22.2808 22.2449 22.2091 22.2486 22.1279 22.2527C22.0464 22.2568 21.9449 22.2649 21.8154 22.2771C21.7389 22.2853 21.6859 22.3268 21.6523 22.4001C21.6142 22.4733 21.5997 22.5385 21.5996 22.5955C21.6715 24.3669 21.6715 26.1063 21.5996 27.8083C21.5996 27.8736 21.6188 27.9391 21.6523 28.0125C21.6858 28.0858 21.7437 28.1261 21.8154 28.1384C21.94 28.1507 22.0505 28.1588 22.1416 28.1628C22.2326 28.171 22.3382 28.1716 22.4102 28.1716C22.4821 28.1716 22.559 28.1677 22.6357 28.1677C22.7124 28.1636 22.7987 28.1591 22.8945 28.155C22.9713 28.1509 23.0291 28.1222 23.0723 28.0691C23.1153 28.0161 23.1396 27.9631 23.1396 27.906L23.1445 27.9138C23.1445 27.7551 23.1487 27.6166 23.1582 27.5066C23.1678 27.3965 23.1779 27.29 23.1875 27.1921C23.1971 27.0942 23.2062 26.996 23.2158 26.9021C23.2254 26.8082 23.2354 26.6976 23.2402 26.571C23.2403 26.5142 23.2643 26.4861 23.293 26.4861C23.3216 26.4862 23.3411 26.5025 23.3555 26.531C23.4274 26.6574 23.5227 26.8087 23.6328 26.988C23.743 27.1634 23.8679 27.3345 24.0068 27.5017C24.1458 27.6649 24.2949 27.8119 24.4482 27.9343C24.6016 28.0567 24.7599 28.1305 24.9229 28.155C25.1146 28.1877 25.3305 28.1999 25.46 28.2C25.5893 28.2 25.7093 28.1921 25.8242 28.1677C25.9392 28.1432 26.0355 28.098 26.1074 28.0369C26.1937 27.9675 26.2566 27.8937 26.2949 27.8162C26.3284 27.7386 26.3427 27.6322 26.3379 27.5017C26.3187 27.0773 26.3037 26.6607 26.3037 26.2527C26.2989 25.8489 26.3039 25.4369 26.3135 25.0291C26.3231 24.6168 26.3333 24.2041 26.3477 23.7878C26.362 23.3715 26.3812 22.9425 26.4004 22.5017C26.4003 22.4162 26.3759 22.3429 26.3232 22.2859C26.2706 22.2288 26.1893 22.2 26.084 22.2C25.9689 22.204 25.8676 22.2125 25.7812 22.2166Z" fill="black"/>
</g>
<defs>
<clipPath id="clip0_3052_7397">
<rect width="12" height="12" fill="white" transform="translate(18 19.2)"/>
</clipPath>
</defs>
</svg>
